# xmcd CD database file
#
# Track frame offsets:
#	150
#	11362
#	24721
#	38495
#	56487
#	74893
#	85838
#	99937
#	112341
#	127140
#	147437
#	167262
#	185462
#	196725
#	215132
#	226693
#
# Disc length: 3204 seconds
#
# Revision: 0
# Processed by: cddbd v1.5.2PL0 Copyright (c) Steve Scherf et al.
# Submitted via: CDex 1.40Release
#
DISCID=dd0c8210
DTITLE=Various Artist - Good Mush
DYEAR=2006
DGENRE=Country
TTITLE0=Alexander Baeurich - Good Mush
TTITLE1=Rik Palieri - Hills of old Vermont
TTITLE2=Wilfried Mengs - Wintertrip
TTITLE3=Rik Palieri, Wilfried Mengs - Alaskian Tears (Flute)
TTITLE4=Wilfried Mengs - Maggie
TTITLE5=Rik Palieri - Marfa Lights
TTITLE6=Alexander Baeurich - At the end of my time
TTITLE7=Alexander Baeurich - Wayfaring stranger
TTITLE8=Rik Palieri - Freezing in North Dakota
TTITLE9=Wilfried Mengs - Das grosse Rennen nach Nome
TTITLE10=Rik Palieri - I got Nashville on my mind
TTITLE11=Wilfried Mengs (trad. Irisch) - A lovers heart
TTITLE12=Alexander Baeurich - Sittin' here and cryin'
TTITLE13=Rik Palieri - The road is my Mistress
TTITLE14=Alexander Baeurich - Look back on your life
TTITLE15=Alexander Baeurich, Wilfried Mengs, Rik Palieri - North to Alaska
EXTD=YEAR: 2006 ID3G: 2
EXTT0=
EXTT1=
EXTT2=
EXTT3=
EXTT4=
EXTT5=
EXTT6=
EXTT7=
EXTT8=
EXTT9=
EXTT10=
EXTT11=
EXTT12=
EXTT13=
EXTT14=
EXTT15=
PLAYORDER=
